<?xml version="1.0" standalone="no"?>
<!DOCTYPE svg PUBLIC "-//W3C//DTD SVG 20010904//EN"
 "http://www.w3.org/TR/2001/REC-SVG-20010904/DTD/svg10.dtd">
<svg version="1.0" xmlns="http://www.w3.org/2000/svg"
 width="1425.000000pt" height="1425.000000pt" viewBox="0 0 1425.000000 1425.000000"
 preserveAspectRatio="xMidYMid meet">
<metadata>
Created by potrace 1.11, written by Peter Selinger 2001-2013
</metadata>
<g transform="translate(0.000000,1425.000000) scale(0.100000,-0.100000)"
fill="#000000" stroke="none">
<path d="M7254 11918 l1 -2203 2200 0 2200 0 3 2203 2 2202 -2204 0 -2204 0 2
-2202z"/>
<path d="M0 8290 l0 -3240 2203 2 2202 3 0 3235 0 3235 -2202 3 -2203 2 0
-3240z"/>
<path d="M4927 11523 c-2 -5 -4 -413 -4 -908 l0 -900 907 0 908 0 -1 907 0
908 -903 0 c-497 0 -905 -3 -907 -7z"/>
<path d="M4926 9192 c-2 -4 -3 -412 -2 -907 l1 -900 906 -2 906 -1 1 908 0
908 -904 0 c-497 0 -906 -3 -908 -6z"/>
<path d="M7256 9191 c-2 -3 -4 -412 -4 -908 l0 -902 909 0 909 0 0 909 0 908
-905 0 c-498 0 -907 -3 -909 -7z"/>
<path d="M9589 9197 c-1 -1 -2 -1459 -3 -3239 l-1 -3238 2332 0 2333 0 0 3239
0 3239 -2330 0 c-1281 0 -2331 -1 -2331 -1z"/>
<path d="M4925 6856 c-2 -6 -3 -414 -2 -906 l2 -895 906 -3 906 -2 -1 907 -1
908 -903 1 c-648 1 -905 -2 -907 -10z"/>
<path d="M7256 6861 c-2 -3 -4 -412 -4 -908 l0 -903 909 0 909 0 0 909 0 908
-905 0 c-498 0 -907 -3 -909 -6z"/>
<path d="M2330 2332 l0 -2202 2203 2 2202 3 1 2200 1 2200 -2203 0 -2204 0 0
-2203z"/>
<path d="M7260 4530 c-4 -3 -8 -411 -8 -907 l0 -903 909 0 909 0 0 908 0 907
-901 0 c-495 0 -904 -2 -909 -5z"/>
</g>
</svg>
