---
# Front matter comment to ensure Jekyll properly reads file.
---
<?xml version="1.0" encoding="UTF-8"?><svg width="26" height="26" version="1.1" viewBox="0 -49.8333 26 26" xmlns="http://www.w3.org/2000/svg" xmlns:xlink="http://www.w3.org/1999/xlink"><!--Generated by IJSVG (https://github.com/curthard89/IJSVG)--><g transform="scale(1.01111)"><g fill="#D5E5F4"><path d="M6.59598,20.4911c-0.089286,0.100447 -0.200893,0.083706 -0.334821,-0.050223c-0.14509,-0.122768 -0.167411,-0.228795 -0.066965,-0.31808c0.089286,-0.100447 0.200893,-0.083706 0.334822,0.050223c0.133928,0.122768 0.15625,0.228794 0.066964,0.31808Zm-0.703125,-1.0212c0.100447,0.133928 0.100447,0.239955 0,0.31808c-0.089286,0.066964 -0.184152,0.027902 -0.284598,-0.117187c-0.100447,-0.14509 -0.100447,-0.245536 0,-0.30134c0.100446,-0.078125 0.195312,-0.044642 0.284598,0.100447Zm-1.02121,-1.00446c-0.055804,0.078125 -0.128348,0.089285 -0.217634,0.033482c-0.111607,-0.055804 -0.15067,-0.122768 -0.117188,-0.200893c0.033482,-0.055804 0.106027,-0.066964 0.217634,-0.033482c0.111607,0.055803 0.15067,0.122768 0.117188,0.200893Zm0.518973,0.569196c-0.066964,0.078125 -0.15625,0.061384 -0.267857,-0.050223c-0.100447,-0.122768 -0.111607,-0.212054 -0.033482,-0.267857c0.066964,-0.066965 0.15625,-0.050224 0.267857,0.050223c0.100446,0.122768 0.111607,0.212053 0.033482,0.267857Zm2.1596,1.875c-0.044643,0.133929 -0.150669,0.167411 -0.31808,0.100446c-0.189732,-0.044642 -0.262277,-0.128348 -0.217634,-0.251116c0.044643,-0.122768 0.15067,-0.16183 0.31808,-0.117187c0.178572,0.055803 0.251116,0.145089 0.217634,0.267857Zm1.05469,0.083705c0,0.122768 -0.089286,0.184152 -0.267857,0.184152c-0.189733,0.022322 -0.284599,-0.039062 -0.284599,-0.184152c0,-0.122768 0.089286,-0.184151 0.267857,-0.184151c0.189733,-0.022322 0.284599,0.039062 0.284599,0.184151Zm0.970982,-0.16741c0.022321,0.111607 -0.055804,0.189732 -0.234375,0.234375c-0.178572,0.044642 -0.279018,0 -0.301339,-0.133929c-0.022322,-0.133929 0.055803,-0.217634 0.234375,-0.251116c0.178571,-0.022321 0.279017,0.027902 0.301339,0.15067Zm16.1384,-16.0045v16.0714c0,1.32812 -0.47154,2.46373 -1.41462,3.40681c-0.94308,0.94308 -2.07868,1.41462 -3.40681,1.41462h-3.75c-0.178571,0 -0.31529,-0.00558 -0.410156,-0.016741c-0.094866,-0.01116 -0.203683,-0.039062 -0.326451,-0.083705c-0.122768,-0.044643 -0.212054,-0.125558 -0.267857,-0.242746c-0.055804,-0.117187 -0.083705,-0.270647 -0.083705,-0.460379v-4.00112c0,-1.08259 -0.290179,-1.875 -0.870536,-2.37723c0.63616,-0.066964 1.20815,-0.167411 1.71596,-0.301339c0.507812,-0.133929 1.03237,-0.351563 1.57366,-0.652902c0.541295,-0.30134 0.993304,-0.672433 1.35603,-1.11328c0.362723,-0.440848 0.658482,-1.02679 0.887277,-1.75781c0.228795,-0.731027 0.343192,-1.57087 0.343192,-2.51953c0,-1.35045 -0.440848,-2.5 -1.32255,-3.44866c0.412947,-1.01562 0.368304,-2.15402 -0.133928,-3.41518c-0.3125,-0.100446 -0.764509,-0.039062 -1.35603,0.184152c-0.591518,0.223214 -1.10491,0.46875 -1.54018,0.736607l-0.63616,0.401786c-1.03795,-0.290179 -2.10937,-0.435268 -3.21429,-0.435268c-1.10491,0 -2.17634,0.145089 -3.21429,0.435268c-0.178571,-0.122768 -0.415736,-0.273437 -0.711495,-0.452009c-0.295759,-0.178571 -0.761719,-0.393415 -1.39788,-0.644531c-0.636161,-0.251116 -1.11607,-0.326451 -1.43973,-0.226005c-0.491071,1.26116 -0.530134,2.39955 -0.117188,3.41518c-0.881696,0.948661 -1.32254,2.09821 -1.32254,3.44866c0,0.94866 0.114397,1.78571 0.343192,2.51116c0.228794,0.725447 0.521763,1.31138 0.878906,1.75781c0.357143,0.446429 0.806362,0.820312 1.34766,1.12165c0.541295,0.301339 1.06585,0.518973 1.57366,0.652902c0.507813,0.133928 1.0798,0.234375 1.71596,0.301339c-0.446429,0.401786 -0.719866,0.976562 -0.820313,1.72433c-0.234375,0.111607 -0.485491,0.195313 -0.753348,0.251116c-0.267857,0.055804 -0.585937,0.083706 -0.954241,0.083706c-0.368303,0 -0.733817,-0.119978 -1.09654,-0.359933c-0.362723,-0.239956 -0.672433,-0.588728 -0.92913,-1.04632c-0.212053,-0.357143 -0.4827,-0.647322 -0.811942,-0.870536c-0.329241,-0.223214 -0.605468,-0.357143 -0.828683,-0.401786l-0.334821,-0.050223c-0.234375,0 -0.396205,0.025112 -0.485491,0.075335c-0.089286,0.050223 -0.117188,0.114397 -0.083705,0.192522c0.033482,0.078125 0.083705,0.15625 0.150669,0.234375c0.066964,0.078125 0.139509,0.145089 0.217634,0.200893l0.117188,0.083705c0.245535,0.111607 0.488281,0.323661 0.728236,0.636161c0.239956,0.3125 0.415737,0.597098 0.527344,0.853795l0.167411,0.385044c0.145089,0.424107 0.390625,0.767299 0.736607,1.02958c0.345982,0.262277 0.719866,0.429688 1.12165,0.502232c0.401785,0.072545 0.78962,0.111607 1.1635,0.117188c0.373884,0.00558 0.683594,-0.013951 0.92913,-0.058594l0.385044,-0.066964c0,0.424107 0.00279,0.998884 0.008371,1.72433c0.00558,0.725447 0.00837,1.10491 0.00837,1.13839c0,0.245536 -0.061384,0.432478 -0.184151,0.560826c-0.122768,0.128348 -0.245536,0.200893 -0.368304,0.217634c-0.122768,0.016741 -0.30692,0.025111 -0.552455,0.025111h-3.75c-1.32812,0 -2.46373,-0.47154 -3.40681,-1.41462c-0.943081,-0.94308 -1.41462,-2.07868 -1.41462,-3.40681v-16.0714c0,-1.32812 0.47154,-2.46373 1.41462,-3.40681c0.94308,-0.94308 2.07868,-1.41462 3.40681,-1.41462h16.0714c1.32812,0 2.46373,0.47154 3.40681,1.41462c0.943081,0.943081 1.41462,2.07868 1.41462,3.40681Z" transform="translate(0, -49.2857)"></path></g></g></svg>