---
# Front matter comment to ensure Jekyll properly reads file.
---
<?xml version="1.0" encoding="UTF-8"?><svg width="26" height="26" version="1.1" viewBox="0 -49.8333 26 26" xmlns="http://www.w3.org/2000/svg" xmlns:xlink="http://www.w3.org/1999/xlink"><!--Generated by IJSVG (https://github.com/curthard89/IJSVG)--><g transform="scale(1.01111)"><g fill="#D5E5F4"><path d="M3.96763,21.529h3.86719v-11.6183h-3.86719Zm4.1183,-15.2009c-0.011161,-0.580357 -0.212054,-1.06027 -0.602679,-1.43973c-0.390625,-0.379465 -0.909598,-0.569197 -1.55692,-0.569197c-0.647321,0 -1.17466,0.189732 -1.58203,0.569197c-0.407366,0.379464 -0.611049,0.859375 -0.611049,1.43973c0,0.569196 0.198103,1.04632 0.594308,1.43136c0.396205,0.385045 0.912388,0.577567 1.54855,0.577567h0.016741c0.658482,0 1.18862,-0.192522 1.5904,-0.577567c0.401786,-0.385044 0.602679,-0.862165 0.602679,-1.43136Zm9.79353,15.2009h3.86719v-6.66295c0,-1.71875 -0.407366,-3.01897 -1.2221,-3.90067c-0.814733,-0.881697 -1.89174,-1.32254 -3.23103,-1.32254c-1.51786,0 -2.68415,0.652902 -3.49888,1.95871h0.033482v-1.69085h-3.86719c0.033482,0.736607 0.033482,4.60938 0,11.6183h3.86719v-6.49554c0,-0.424107 0.039063,-0.736607 0.117187,-0.9375c0.167411,-0.390625 0.418527,-0.722656 0.753349,-0.996094c0.334821,-0.273437 0.747768,-0.410156 1.23884,-0.410156c1.29464,0 1.94196,0.876116 1.94196,2.62835Zm7.83482,-16.7076v16.0714c0,1.32812 -0.47154,2.46373 -1.41462,3.40681c-0.94308,0.94308 -2.07868,1.41462 -3.40681,1.41462h-16.0714c-1.32813,0 -2.46373,-0.47154 -3.40681,-1.41462c-0.943081,-0.94308 -1.41462,-2.07868 -1.41462,-3.40681v-16.0714c0,-1.32812 0.47154,-2.46373 1.41462,-3.40681c0.94308,-0.94308 2.07868,-1.41462 3.40681,-1.41462h16.0714c1.32812,0 2.46373,0.47154 3.40681,1.41462c0.943081,0.943081 1.41462,2.07868 1.41462,3.40681Z" transform="translate(0, -49.2857)"></path></g></g></svg>