<?xml version="1.0" encoding="UTF-8"?>
<svg width="42px" height="17px" viewBox="0 0 42 17" version="1.1" xmlns="http://www.w3.org/2000/svg" xmlns:xlink="http://www.w3.org/1999/xlink">
    <!-- Generator: Sketch 51.2 (57519) - http://www.bohemiancoding.com/sketch -->
    <title>quotes</title>
    <desc>Created with Sketch.</desc>
    <defs></defs>
    <g id="_Wireframes" stroke="none" stroke-width="1" fill="none" fill-rule="evenodd">
        <g id="Philadelphia" transform="translate(-502.000000, -1181.000000)" fill="#FFFFFF">
            <g id="quotes" transform="translate(502.000000, 1181.000000)">
                <path d="M0,9.93751207 C0,7.47658044 0.562498659,5.4375228 1.68749598,3.82033915 C2.859368,2.1562808 4.5703016,1.0195644 6.82029624,0.410191035 C7.07810795,0.339878703 7.31834211,0.386753412 7.54099765,0.5508157 C7.76365319,0.714877987 7.87498122,0.937533528 7.87498122,1.21878286 L7.87498122,2.41409251 C7.87498122,2.57815479 7.82224698,2.73635754 7.71677848,2.88870075 C7.61130998,3.04104396 7.47654485,3.14065345 7.31248257,3.18752816 C4.87498856,4.07815086 3.65624128,5.76564684 3.65624128,8.25001609 L6.18748525,8.25001609 C6.65623395,8.25001609 7.05467086,8.41407838 7.3827949,8.74220242 C7.71091894,9.07032646 7.87498122,9.46876337 7.87498122,9.93751207 L7.87498122,14.4375013 C7.87498122,14.90625 7.71091894,15.304687 7.3827949,15.632811 C7.05467086,15.960935 6.65623395,16.1249973 6.18748525,16.1249973 L1.68749598,16.1249973 C1.21874727,16.1249973 0.820310365,15.960935 0.492186327,15.632811 C0.164062288,15.304687 0,14.90625 0,14.4375013 L0,9.93751207 Z M11.8124718,16.1249973 C11.3437231,16.1249973 10.9452862,15.960935 10.6171622,15.632811 C10.2890381,15.304687 10.1249759,14.90625 10.1249759,14.4375013 L10.1249759,9.93751207 C10.1249759,7.47658044 10.6874745,5.4375228 11.8124718,3.82033915 C12.9843439,2.1562808 14.6952775,1.0195644 16.9452721,0.410191035 C17.2030838,0.339878703 17.443318,0.386753412 17.6659735,0.5508157 C17.888629,0.714877987 17.9999571,0.937533528 17.9999571,1.21878286 L17.9999571,2.41409251 C17.9999571,2.57815479 17.9472228,2.73635754 17.8417543,2.88870075 C17.7362858,3.04104396 17.6015207,3.14065345 17.4374584,3.18752816 C14.9999644,4.07815086 13.7812171,5.76564684 13.7812171,8.25001609 L16.3124611,8.25001609 C16.7812098,8.25001609 17.1796467,8.41407838 17.5077708,8.74220242 C17.8358948,9.07032646 17.9999571,9.46876337 17.9999571,9.93751207 L17.9999571,14.4375013 C17.9999571,14.90625 17.8358948,15.304687 17.5077708,15.632811 C17.1796467,15.960935 16.7812098,16.1249973 16.3124611,16.1249973 L11.8124718,16.1249973 Z" id=""></path>
                <path d="M41.9999571,6.56252012 C41.9999571,9.02345175 41.4374584,11.0625094 40.3124611,12.679693 C39.1405891,14.3437514 37.4296555,15.4804678 35.1796608,16.0898412 C34.9218491,16.1601535 34.681615,16.1132788 34.4589594,15.9492165 C34.2363039,15.7851542 34.1249759,15.5624987 34.1249759,15.2812493 L34.1249759,14.0859397 C34.1249759,13.9218774 34.1777101,13.7636746 34.2831786,13.6113314 C34.3886471,13.4589882 34.5234122,13.3593787 34.6874745,13.312504 C37.1249685,12.4218813 38.3437158,10.7343853 38.3437158,8.25001609 L35.8124718,8.25001609 C35.3437231,8.25001609 34.9452862,8.08595381 34.6171622,7.75782977 C34.2890381,7.42970573 34.1249759,7.03126882 34.1249759,6.56252012 L34.1249759,2.06253085 C34.1249759,1.59378214 34.2890381,1.19534523 34.6171622,0.867221195 C34.9452862,0.539097156 35.3437231,0.375034869 35.8124718,0.375034869 L40.3124611,0.375034869 C40.7812098,0.375034869 41.1796467,0.539097156 41.5077708,0.867221195 C41.8358948,1.19534523 41.9999571,1.59378214 41.9999571,2.06253085 L41.9999571,6.56252012 Z M30.1874852,0.375034869 C30.656234,0.375034869 31.0546709,0.539097156 31.3827949,0.867221195 C31.7109189,1.19534523 31.8749812,1.59378214 31.8749812,2.06253085 L31.8749812,6.56252012 C31.8749812,9.02345175 31.3124826,11.0625094 30.1874852,12.679693 C29.0156132,14.3437514 27.3046796,15.4804678 25.054685,16.0898412 C24.7968733,16.1601535 24.5566391,16.1132788 24.3339836,15.9492165 C24.111328,15.7851542 24,15.5624987 24,15.2812493 L24,14.0859397 C24,13.9218774 24.0527342,13.7636746 24.1582027,13.6113314 C24.2636712,13.4589882 24.3984364,13.3593787 24.5624987,13.312504 C26.9999927,12.4218813 28.2187399,10.7343853 28.2187399,8.25001609 L25.687496,8.25001609 C25.2187473,8.25001609 24.8203104,8.08595381 24.4921863,7.75782977 C24.1640623,7.42970573 24,7.03126882 24,6.56252012 L24,2.06253085 C24,1.59378214 24.1640623,1.19534523 24.4921863,0.867221195 C24.8203104,0.539097156 25.2187473,0.375034869 25.687496,0.375034869 L30.1874852,0.375034869 Z" id=""></path>
            </g>
        </g>
    </g>
</svg>